<svg width="1000px" height="800px"
 viewBox="0.00 0.00 567.89 206.00" xmlns="http://www.w3.org/2000/svg" xmlns:xlink="http://www.w3.org/1999/xlink">
<g id="graph0" class="graph" transform="scale(1.0 1.0) rotate(0) translate(4 202)">
<title>example1</title>
<polygon fill="#ffffff" stroke="transparent" points="-4,4 -4,-202 563.8895,-202 563.8895,4 -4,4"/>
<!-- attributeChange -->
<g id="node1" class="node">
<title>attributeChange</title>
<ellipse fill="none" stroke="#000000" cx="72.7154" cy="-72" rx="72.9315" ry="18"/>
<text text-anchor="middle" x="72.7154" y="-67.8" font-family="Times,serif" font-size="14.00" fill="#000000">attributeChange</text>
</g>
<!-- location -->
<g id="node2" class="node">
<title>location</title>
<ellipse fill="none" stroke="#000000" cx="72.7154" cy="-126" rx="42.2932" ry="18"/>
<text text-anchor="middle" x="72.7154" y="-121.8" font-family="Times,serif" font-size="14.00" fill="#000000">location</text>
</g>
<!-- screening -->
<g id="node3" class="node">
<title>screening</title>
<ellipse fill="none" stroke="#000000" cx="229.467" cy="-126" rx="48.0723" ry="18"/>
<text text-anchor="middle" x="229.467" y="-121.8" font-family="Times,serif" font-size="14.00" fill="#000000">screening</text>
</g>
<!-- location&#45;&gt;screening -->
<g id="edge1" class="edge">
<title>location&#45;&gt;screening</title>
<path fill="none" stroke="#000000" d="M115.1346,-126C132.3476,-126 152.5147,-126 171.0787,-126"/>
<polygon fill="#000000" stroke="#000000" points="171.1982,-129.5001 181.1982,-126 171.1982,-122.5001 171.1982,-129.5001"/>
</g>
<!-- movie -->
<g id="node4" class="node">
<title>movie</title>
<ellipse fill="none" stroke="#000000" cx="385.1456" cy="-72" rx="35.3528" ry="18"/>
<text text-anchor="middle" x="385.1456" y="-67.8" font-family="Times,serif" font-size="14.00" fill="#000000">movie</text>
</g>
<!-- screening&#45;&gt;movie -->
<g id="edge2" class="edge">
<title>screening&#45;&gt;movie</title>
<path fill="none" stroke="#000000" d="M264.7928,-113.7466C289.1065,-105.3129 321.4029,-94.1103 346.4181,-85.4334"/>
<polygon fill="#000000" stroke="#000000" points="347.6585,-88.7077 355.9593,-82.1238 345.3645,-82.0943 347.6585,-88.7077"/>
</g>
<!-- screeningStatus -->
<g id="node5" class="node">
<title>screeningStatus</title>
<ellipse fill="none" stroke="#000000" cx="385.1456" cy="-126" rx="71.7853" ry="18"/>
<text text-anchor="middle" x="385.1456" y="-121.8" font-family="Times,serif" font-size="14.00" fill="#000000">screeningStatus</text>
</g>
<!-- screening&#45;&gt;screeningStatus -->
<g id="edge3" class="edge">
<title>screening&#45;&gt;screeningStatus</title>
<path fill="none" stroke="#000000" d="M277.8713,-126C285.9547,-126 294.5347,-126 303.1828,-126"/>
<polygon fill="#000000" stroke="#000000" points="303.3406,-129.5001 313.3405,-126 303.3405,-122.5001 303.3406,-129.5001"/>
</g>
<!-- vote -->
<g id="node7" class="node">
<title>vote</title>
<ellipse fill="none" stroke="#000000" cx="526.3388" cy="-72" rx="27.8286" ry="18"/>
<text text-anchor="middle" x="526.3388" y="-67.8" font-family="Times,serif" font-size="14.00" fill="#000000">vote</text>
</g>
<!-- movie&#45;&gt;vote -->
<g id="edge7" class="edge">
<title>movie&#45;&gt;vote</title>
<path fill="none" stroke="#000000" d="M420.4104,-72C441.0935,-72 467.228,-72 488.3627,-72"/>
<polygon fill="#000000" stroke="#000000" points="488.5963,-75.5001 498.5963,-72 488.5963,-68.5001 488.5963,-75.5001"/>
</g>
<!-- role -->
<g id="node9" class="node">
<title>role</title>
<ellipse fill="none" stroke="#000000" cx="526.3388" cy="-153" rx="27" ry="18"/>
<text text-anchor="middle" x="526.3388" y="-148.8" font-family="Times,serif" font-size="14.00" fill="#000000">role</text>
</g>
<!-- movie&#45;&gt;role -->
<g id="edge6" class="edge">
<title>movie&#45;&gt;role</title>
<path fill="none" stroke="#000000" d="M415.6703,-81.2378C428.7349,-85.7603 443.9138,-91.7935 456.7881,-99 473.0924,-108.1264 489.6823,-120.8476 502.5684,-131.6506"/>
<polygon fill="#000000" stroke="#000000" points="500.5909,-134.5654 510.4614,-138.4157 505.1464,-129.2505 500.5909,-134.5654"/>
</g>
<!-- login -->
<g id="node6" class="node">
<title>login</title>
<ellipse fill="none" stroke="#000000" cx="385.1456" cy="-18" rx="30.7789" ry="18"/>
<text text-anchor="middle" x="385.1456" y="-13.8" font-family="Times,serif" font-size="14.00" fill="#000000">login</text>
</g>
<!-- login&#45;&gt;vote -->
<g id="edge4" class="edge">
<title>login&#45;&gt;vote</title>
<path fill="none" stroke="#000000" d="M411.3702,-27.8124C424.9397,-32.9076 441.7665,-39.2538 456.7881,-45 468.5778,-49.5099 481.4703,-54.4988 492.9175,-58.9486"/>
<polygon fill="#000000" stroke="#000000" points="491.9525,-62.3287 502.541,-62.6946 494.4917,-55.8055 491.9525,-62.3287"/>
</g>
<!-- secret -->
<g id="node8" class="node">
<title>secret</title>
<ellipse fill="none" stroke="#000000" cx="526.3388" cy="-18" rx="33.6015" ry="18"/>
<text text-anchor="middle" x="526.3388" y="-13.8" font-family="Times,serif" font-size="14.00" fill="#000000">secret</text>
</g>
<!-- login&#45;&gt;secret -->
<g id="edge5" class="edge">
<title>login&#45;&gt;secret</title>
<path fill="none" stroke="#000000" d="M416.1311,-18C435.5945,-18 460.9971,-18 482.508,-18"/>
<polygon fill="#000000" stroke="#000000" points="482.7123,-21.5001 492.7122,-18 482.7122,-14.5001 482.7123,-21.5001"/>
</g>
<!-- person -->
<g id="node10" class="node">
<title>person</title>
<ellipse fill="none" stroke="#000000" cx="385.1456" cy="-180" rx="36.5594" ry="18"/>
<text text-anchor="middle" x="385.1456" y="-175.8" font-family="Times,serif" font-size="14.00" fill="#000000">person</text>
</g>
<!-- person&#45;&gt;role -->
<g id="edge8" class="edge">
<title>person&#45;&gt;role</title>
<path fill="none" stroke="#000000" d="M419.6854,-173.3951C441.1109,-169.2979 468.5934,-164.0425 490.2943,-159.8927"/>
<polygon fill="#000000" stroke="#000000" points="490.9581,-163.3293 500.1227,-158.0132 489.6433,-156.4539 490.9581,-163.3293"/>
</g>
<!-- schedule -->
<g id="node11" class="node">
<title>schedule</title>
<ellipse fill="none" stroke="#000000" cx="229.467" cy="-72" rx="44.6434" ry="18"/>
<text text-anchor="middle" x="229.467" y="-67.8" font-family="Times,serif" font-size="14.00" fill="#000000">schedule</text>
</g>
<!-- schedule&#45;&gt;movie -->
<g id="edge9" class="edge">
<title>schedule&#45;&gt;movie</title>
<path fill="none" stroke="#000000" d="M274.4957,-72C295.007,-72 319.2388,-72 339.7895,-72"/>
<polygon fill="#000000" stroke="#000000" points="339.8547,-75.5001 349.8547,-72 339.8546,-68.5001 339.8547,-75.5001"/>
</g>
</g>
</svg>
